<svg xmlns="http://www.w3.org/2000/svg" viewBox="0 0 299.96 79.5"><defs><style>.cls-1{fill-rule:evenodd;}</style></defs><g id="Layer_2" data-name="Layer 2"><g id="Layer_1-2" data-name="Layer 1"><path d="M53,58.31Q53,79.51,25.77,79.5,9.39,79.5.45,63.3A4.22,4.22,0,0,1,0,61.39a4,4,0,0,1,1.07-2.76A3.26,3.26,0,0,1,3.5,57.45,2.76,2.76,0,0,1,6,59.23a23.08,23.08,0,0,0,8.37,9.64,20.65,20.65,0,0,0,11.41,3.5Q46,72.37,46,58.29q0-5.86-5.88-9.81-3.84-2.7-13.45-6.08Q13.57,37.78,9,34.62.57,28.88.57,19.63q0-10,7.57-15.1Q14.25.36,24.19,0A28.89,28.89,0,0,1,40.13,3.64,21.08,21.08,0,0,1,50,16.08a3,3,0,0,1,.22,1.13q0,3.16-3.62,3.16a3.26,3.26,0,0,1-3.39-2.46,14.07,14.07,0,0,0-7-8.07A22.38,22.38,0,0,0,24.42,7.15q-17,.67-17,12.39,0,7.79,11.76,12.74,11,4.28,22,8.56Q53,47.28,53,58.31Z"/><path d="M79.3,76.42Q79.3,79,75.91,79T72.4,76.42V25.31a3.56,3.56,0,0,1,3.51-3.74,3.51,3.51,0,0,1,3.39,3.74Z"/><path d="M163.57,75.54q0,3.61-3.39,3.62c-2.34,0-3.5-1.21-3.5-3.62V13.82L136.33,43.21q-1.82,2.59-4.18,2.6a4.61,4.61,0,0,1-3.85-2.26L108,13.6V75.54c0,2.41-1.16,3.62-3.5,3.62S101,78,101,75.54v-70q0-3.86,3.82-3.85a6.39,6.39,0,0,1,5.41,3.08l22.11,31.74L154.45,4.91c1.65-2.42,3.45-3.64,5.41-3.64q3.7,0,3.71,4.3Z"/><path d="M232.88,40.55q0,15.81-7.47,26.87Q217.28,79.5,204.05,79.5T182.57,67.42q-7.8-11.3-7.8-26.87t7.35-27.2Q190.15.83,202.81.82,216.37.82,225,13.35,232.88,24.85,232.88,40.55Zm-6.9-.06q0-13.07-5.77-22.19Q213.77,8,202.81,7.94q-10.19,0-15.94,10.36-5.09,9-5.09,22.19,0,13,5.54,22,6.21,9.91,16.73,9.91t16.62-9.91Q226,53.57,226,40.49Z"/><path d="M300,75.76c0,2.26-.9,3.4-2.7,3.4-1.43,0-2.74-.88-3.94-2.62L250.79,15.2V75.53q0,3.63-3.51,3.63t-3.5-3.62v-71q0-3.28,3.05-3.28c1.58,0,3,.87,4.18,2.6l42.06,60.25V4.9c0-2.42,1.16-3.63,3.5-3.63S300,2.48,300,4.9Z"/><path id="wifi-_1018_" data-name="wifi-[#1018]" class="cls-1" d="M68.55,16.61,71,19a7,7,0,0,1,9.73,0l2.43-2.41a10.4,10.4,0,0,0-14.6,0M58.82,7l2.44,2.41a20.81,20.81,0,0,1,29.19,0L92.88,7A24.26,24.26,0,0,0,58.82,7M88,11.8l-2.44,2.41a13.88,13.88,0,0,0-19.46,0L63.69,11.8A17.33,17.33,0,0,1,88,11.8"/></g></g></svg>