<svg xmlns="http://www.w3.org/2000/svg" viewBox="0 0 299.96 107.82"><defs><style>.cls-1,.cls-2{fill:#fff;}.cls-2{fill-rule:evenodd;}</style></defs><g id="Layer_2" data-name="Layer 2"><g id="Layer_1-2" data-name="Layer 1"><path class="cls-1" d="M53,58.31Q53,79.51,25.77,79.5,9.39,79.5.45,63.3A4.22,4.22,0,0,1,0,61.39a4,4,0,0,1,1.07-2.76A3.26,3.26,0,0,1,3.5,57.45,2.76,2.76,0,0,1,6,59.23a23.08,23.08,0,0,0,8.37,9.64,20.65,20.65,0,0,0,11.41,3.5Q46,72.37,46,58.29q0-5.86-5.88-9.81-3.84-2.7-13.45-6.08Q13.57,37.78,9,34.62.57,28.88.57,19.63q0-10,7.57-15.1Q14.25.36,24.19,0A28.89,28.89,0,0,1,40.13,3.64,21.08,21.08,0,0,1,50,16.08a3,3,0,0,1,.22,1.13q0,3.16-3.62,3.16a3.26,3.26,0,0,1-3.39-2.46,14.07,14.07,0,0,0-7-8.07A22.38,22.38,0,0,0,24.42,7.15q-17,.67-17,12.39,0,7.79,11.76,12.74,11,4.28,22,8.56Q53,47.28,53,58.31Z"/><path class="cls-1" d="M79.3,76.42Q79.3,79,75.91,79T72.4,76.42V25.31a3.56,3.56,0,0,1,3.51-3.74,3.51,3.51,0,0,1,3.39,3.74Z"/><path class="cls-1" d="M163.57,75.54q0,3.61-3.39,3.62c-2.34,0-3.5-1.21-3.5-3.62V13.82L136.33,43.21q-1.82,2.59-4.18,2.6a4.61,4.61,0,0,1-3.85-2.26L108,13.6V75.54c0,2.41-1.16,3.62-3.5,3.62S101,78,101,75.54v-70q0-3.86,3.82-3.85a6.39,6.39,0,0,1,5.41,3.08l22.11,31.74L154.45,4.91c1.65-2.42,3.45-3.64,5.41-3.64q3.7,0,3.71,4.3Z"/><path class="cls-1" d="M232.88,40.55q0,15.81-7.47,26.87Q217.28,79.5,204.05,79.5T182.57,67.42q-7.8-11.3-7.8-26.87t7.35-27.2Q190.15.83,202.81.82,216.37.82,225,13.35,232.88,24.85,232.88,40.55Zm-6.9-.06q0-13.07-5.77-22.19Q213.77,8,202.81,7.94q-10.19,0-15.94,10.36-5.09,9-5.09,22.19,0,13,5.54,22,6.21,9.91,16.73,9.91t16.62-9.91Q226,53.57,226,40.49Z"/><path class="cls-1" d="M300,75.76c0,2.26-.9,3.4-2.7,3.4-1.43,0-2.74-.88-3.94-2.62L250.79,15.2V75.53q0,3.63-3.51,3.63t-3.5-3.62v-71q0-3.28,3.05-3.28c1.58,0,3,.87,4.18,2.6l42.06,60.25V4.9c0-2.42,1.16-3.63,3.5-3.63S300,2.48,300,4.9Z"/><path class="cls-1" d="M16,100.77q0,6.51-6.75,7a7.05,7.05,0,0,1-5-1.53A6.41,6.41,0,0,1,1.74,101V88.32Q1.74,87,3,87T4.2,88.32V101a4,4,0,0,0,1.59,3.39,4.7,4.7,0,0,0,3.27,1q4.5-.27,4.5-4.53V88.32q0-1.29,1.23-1.29T16,88.32Z"/><path class="cls-1" d="M29.43,107.4H19.62V92q0-1.26,1.2-1.26T22,92v12.87h7.44a1.09,1.09,0,0,1,1.23,1.23A1.1,1.1,0,0,1,29.43,107.4Z"/><path class="cls-1" d="M44.52,93.39H40.59v13a1.29,1.29,0,1,1-2.58,0v-13H34.08a1.15,1.15,0,0,1-1.29-1.32,1.14,1.14,0,0,1,1.29-1.29H44.52a1.15,1.15,0,0,1,1.32,1.29A1.17,1.17,0,0,1,44.52,93.39Z"/><path class="cls-1" d="M60.36,95.58a4.62,4.62,0,0,1-1.71,3.9,3.72,3.72,0,0,1-2.25.87h.22l3.49,5.35a1.21,1.21,0,0,1,.25.72,1.18,1.18,0,0,1-.39.88,1.22,1.22,0,0,1-.87.37,1.07,1.07,0,0,1-.9-.51l-4.53-6.81H51v6.06q0,1.26-1.2,1.26t-1.2-1.26V90.78h7A4.76,4.76,0,0,1,58.89,92,4.59,4.59,0,0,1,60.36,95.58Zm-2.4,0a2.12,2.12,0,0,0-.71-1.71,2.52,2.52,0,0,0-1.69-.6H51v4.62H56.4a1.36,1.36,0,0,0,.93-.48A2.54,2.54,0,0,0,58,95.58Z"/><path class="cls-1" d="M77,105.93a1.35,1.35,0,0,1,.09.47,1.05,1.05,0,0,1-.39.84,1.31,1.31,0,0,1-.9.34,1.08,1.08,0,0,1-1.08-.72l-.92-2.34H66.43l-.87,2.35a1.12,1.12,0,0,1-1.12.71,1.36,1.36,0,0,1-.87-.32,1,1,0,0,1-.39-.81,1.5,1.5,0,0,1,.09-.49l5.49-14.64a1.47,1.47,0,0,1,1.2-.69,1.5,1.5,0,0,1,1.23.69Zm-4.12-3.81L70,94.94l-2.73,7.18Z"/><path class="cls-1" d="M91.38,102.84q0,4.89-6.06,4.89-3.42,0-5.37-3.6a1.16,1.16,0,0,1-.15-.57,1.36,1.36,0,0,1,.43-1,1.34,1.34,0,0,1,1-.44.89.89,0,0,1,.84.63,3.45,3.45,0,0,0,3.3,2.49q3.6,0,3.6-2.37,0-1.08-2.31-2.07a45.13,45.13,0,0,1-4.29-2A4.5,4.5,0,0,1,80,95q0-4.26,5.13-4.5a6,6,0,0,1,3.48.84,4.88,4.88,0,0,1,2.13,2.76,1.52,1.52,0,0,1,.06.42,1,1,0,0,1-.36.8,1.23,1.23,0,0,1-.84.31,1.13,1.13,0,0,1-1.16-.87,2.37,2.37,0,0,0-1.18-1.36,3.68,3.68,0,0,0-2-.44q-2.79.12-2.79,2,0,1.5,2.31,2.52l4.29,1.83A4,4,0,0,1,91.38,102.84Z"/><path class="cls-1" d="M106.92,99.21a10.24,10.24,0,0,1-1.65,5.79,5.24,5.24,0,0,1-9.18,0,10.19,10.19,0,0,1-1.65-5.76,9.79,9.79,0,0,1,1.71-5.73,5.28,5.28,0,0,1,9.18,0A10.14,10.14,0,0,1,106.92,99.21Zm-2.4,0a8.35,8.35,0,0,0-.87-4,3.19,3.19,0,0,0-5.88,0,8.11,8.11,0,0,0-.93,4,8.29,8.29,0,0,0,.93,4,3.13,3.13,0,0,0,5.82,0A8.29,8.29,0,0,0,104.52,99.21Z"/><path class="cls-1" d="M121.92,101.91q0,5.4-5.52,5.79a5.6,5.6,0,0,1-4.11-1.26,5.28,5.28,0,0,1-2-4.38V92q0-1.26,1.2-1.26T112.65,92v10a2.94,2.94,0,0,0,1.17,2.46,3.51,3.51,0,0,0,2.4.69q3.3-.18,3.3-3.3V92q0-1.26,1.2-1.26t1.2,1.26Z"/><path class="cls-1" d="M137.1,106.35c0,.86-.34,1.29-1,1.29a1.58,1.58,0,0,1-1.29-.83l-7.52-11.06v10.64c0,.84-.4,1.25-1.2,1.25s-1.2-.42-1.2-1.25V91.92q0-1.23,1.14-1.23a1.47,1.47,0,0,1,1.23.75l7.47,11V92q0-1.26,1.2-1.26T137.1,92Z"/><path class="cls-1" d="M152.64,98.67q0,4-1.53,6.09A6.43,6.43,0,0,1,147,107a32.79,32.79,0,0,1-5.82.36V90.78q6,0,8.13,1Q152.64,93.45,152.64,98.67Zm-2.37,0q0-3.48-2.1-4.65a9.7,9.7,0,0,0-4.56-.78v11.67a8.73,8.73,0,0,0,4.56-.93Q150.27,102.63,150.27,98.67Z"/><path class="cls-1" d="M181.17,102q0,5.82-7.26,5.82-4.35,0-6.69-4.32a1.26,1.26,0,0,1-.18-.66,1.39,1.39,0,0,1,.42-1,1.28,1.28,0,0,1,.93-.44.89.89,0,0,1,.84.63,4.89,4.89,0,0,0,4.68,3.24c3.16,0,4.74-1.08,4.74-3.26q0-1.68-3-2.91l-5.49-2.3a5.32,5.32,0,0,1-3-4.71,4.76,4.76,0,0,1,2-4.16,7.73,7.73,0,0,1,4.26-1.23,7.51,7.51,0,0,1,4.23,1A5.87,5.87,0,0,1,180.33,91a1.52,1.52,0,0,1,.06.42,1,1,0,0,1-.38.83,1.32,1.32,0,0,1-.88.31,1.12,1.12,0,0,1-1.17-.87,3.36,3.36,0,0,0-1.64-1.93,5,5,0,0,0-2.74-.65q-3.93.15-3.93,2.88a2.88,2.88,0,0,0,1.41,2.4,15.36,15.36,0,0,0,3.3,1.53A22.7,22.7,0,0,1,179,98,4.65,4.65,0,0,1,181.17,102Z"/><path class="cls-1" d="M187.83,106.33a1.23,1.23,0,1,1-2.46,0V92a1.23,1.23,0,1,1,2.46,0Z"/><path class="cls-1" d="M205.86,106.35c0,.86-.41,1.29-1.2,1.29s-1.2-.43-1.2-1.29V95.49l-3.15,4.59a1.54,1.54,0,0,1-1.32.75,1.37,1.37,0,0,1-1.2-.69l-3.12-4.74v11q0,1.26-1.2,1.26a1.1,1.1,0,0,1-1.23-1.26V92.17c0-.91.43-1.36,1.29-1.36a1.8,1.8,0,0,1,1.54.9l4,5.81,4.05-5.78a2,2,0,0,1,1.56-1,1.09,1.09,0,0,1,.86.41,1.53,1.53,0,0,1,.35,1Z"/><path class="cls-1" d="M221.91,101.91q0,5.4-5.52,5.79a5.6,5.6,0,0,1-4.11-1.26,5.28,5.28,0,0,1-2-4.38V92q0-1.26,1.2-1.26T212.64,92v10a2.94,2.94,0,0,0,1.17,2.46,3.51,3.51,0,0,0,2.4.69q3.3-.18,3.3-3.3V92q0-1.26,1.2-1.26t1.2,1.26Z"/><path class="cls-1" d="M235.11,107.4H225.3V92q0-1.26,1.2-1.26T227.67,92v12.87h7.44a1.09,1.09,0,0,1,1.23,1.23A1.1,1.1,0,0,1,235.11,107.4Z"/><path class="cls-1" d="M252.5,105.93a1.17,1.17,0,0,1,.1.47,1.06,1.06,0,0,1-.4.84,1.27,1.27,0,0,1-.89.34,1.08,1.08,0,0,1-1.08-.72l-.93-2.34H242l-.88,2.35a1.11,1.11,0,0,1-1.11.71,1.36,1.36,0,0,1-.87-.32,1,1,0,0,1-.39-.81,1.5,1.5,0,0,1,.09-.49l5.49-14.64a1.41,1.41,0,0,1,2.42,0Zm-4.11-3.81-2.8-7.18-2.73,7.18Z"/><path class="cls-1" d="M267.51,93.39h-3.93v13a1.29,1.29,0,1,1-2.58,0v-13h-3.93a1.15,1.15,0,0,1-1.29-1.32,1.14,1.14,0,0,1,1.29-1.29h10.44a1.15,1.15,0,0,1,1.32,1.29A1.17,1.17,0,0,1,267.51,93.39Z"/><path class="cls-1" d="M283.62,99.21A10.24,10.24,0,0,1,282,105a5.24,5.24,0,0,1-9.18,0,10.19,10.19,0,0,1-1.65-5.76,9.79,9.79,0,0,1,1.71-5.73,5.28,5.28,0,0,1,9.18,0A10.14,10.14,0,0,1,283.62,99.21Zm-2.41,0a8.35,8.35,0,0,0-.87-4,3.19,3.19,0,0,0-5.88,0,8.11,8.11,0,0,0-.93,4,8.29,8.29,0,0,0,.93,4,3.13,3.13,0,0,0,5.82,0A8.29,8.29,0,0,0,281.21,99.21Z"/><path class="cls-1" d="M298.67,95.58a4.62,4.62,0,0,1-1.71,3.9,3.72,3.72,0,0,1-2.25.87h.23l3.48,5.35a1.15,1.15,0,0,1,.25.72,1.18,1.18,0,0,1-.39.88,1.22,1.22,0,0,1-.87.37,1.07,1.07,0,0,1-.9-.51L292,100.35h-2.71v6.06q0,1.26-1.2,1.26t-1.2-1.26V90.78h7A4.76,4.76,0,0,1,297.2,92,4.59,4.59,0,0,1,298.67,95.58Zm-2.39,0a2.12,2.12,0,0,0-.71-1.71,2.54,2.54,0,0,0-1.7-.6h-4.59v4.62h5.43a1.34,1.34,0,0,0,.93-.48A2.5,2.5,0,0,0,296.28,95.58Z"/><path id="wifi-_1018_" data-name="wifi-[#1018]" class="cls-2" d="M68.55,16.61,71,19a7,7,0,0,1,9.73,0l2.43-2.41a10.4,10.4,0,0,0-14.6,0M58.82,7l2.44,2.41a20.81,20.81,0,0,1,29.19,0L92.88,7A24.26,24.26,0,0,0,58.82,7M88,11.8l-2.44,2.41a13.88,13.88,0,0,0-19.46,0L63.69,11.8A17.33,17.33,0,0,1,88,11.8"/></g></g></svg>